<svg xmlns="http://www.w3.org/2000/svg" xmlns:xlink="http://www.w3.org/1999/xlink" version="1.1" x="0px" y="0px" width="100px" height="100px" viewBox="0 0 100 100" enable-background="new 0 0 100 100" xml:space="preserve">
<g id="Captions">
</g>
<g id="Your_Icon">
  <path fill="#3D9970" d="M70.044,30C74,30,77,33.666,77,36.957c0,8.266-10.964,16.485-17,20.067c-6.038-3.584-17-11.802-17-20.067   C43,33.666,45.912,30,49.956,30C56,30,59,36,60,36S64,30,70.044,30z M70.044,26C63,26,60,31,60,31s-3-5-10.044-5   C44,26,39,31,39,36.957c0,13.696,21,24.653,21,24.653s21-10.957,21-24.653C81,31,76,26,70.044,26z"/>
  <path fill="#3D9970" d="M99.201,64.323c-0.976-1.952-3.553-2.965-6.456-2.965c-1.373,0-2.818,0.227-4.203,0.688c0,0-10.896,3.669-18.842,6.045   c-2.764-1.017-5.903-1.05-9.177-1.08c-2.229-0.021-4.535-0.042-6.873-0.366c-1.752-0.244-6.031-1.516-9.162-2.499   c-4.943-1.809-9.792-3.491-12.842-4.134c-1.417-0.299-3.133-0.426-5.036-0.426c-7.722,0-18.546,2.091-25.148,3.3   c-3.389,4.362-0.479,17.967,4.551,20.244c0.497-0.008,9.39-2.476,13.436-2.476c0.406,0,0.763,0.024,1.058,0.079   c10.582,1.961,29.824,6.587,35.574,6.587c5.75,0,35.305-12.621,38.808-14.374C100.638,70.073,100.638,67.198,99.201,64.323z    M33.436,79.284c-4.506-0.95-8.763-1.847-12.2-2.483c-0.532-0.099-1.116-0.146-1.787-0.146c-3.462,0-9.163,0.825-12.366,1.596   c-0.7-0.877-1.792-2.039-2.469-4.774c-0.778-3.144-0.332-5.327-0.031-6.726c6.455-1.188,15.408-3.164,22.027-3.164   c1.725,0,3.142,0.114,4.211,0.34c2.303,0.485,18.877,6.043,22.095,6.491c2.594,0.36,5.213,0.572,7.569,0.594   c3.958,0.036,10.56-0.392,10.618,3.317c0.021,1.297-1.292,2.154-4.354,2.506c-7.25,0.833-18.833-1.459-18.833-1.459   c-4.708-0.958-7.958,0.375-8.917,0.792c0,0,4.726,1.652,8.288,2.301c0,0,9.421,1.907,16.55,1.995   c0.74,0.009,1.501-0.034,2.229-0.074c-4.744,1.715-8.597,2.928-10,2.932C52.575,83.32,41.97,81.082,33.436,79.284z M96.172,67.406   c-0.01,0.27-0.526,0.689-3.073,1.963c-2.369,1.186-10.978,4.854-19.358,8.131c0.555-0.604,2.302-4.167,0.216-6.51   c4.971-1.53,10.705-3.417,15.851-5.149c0.948-0.315,1.964-0.467,2.938-0.482C95.609,65.313,96.182,67.137,96.172,67.406z"/>
</g>
</svg>
