<svg xmlns="http://www.w3.org/2000/svg" xmlns:xlink="http://www.w3.org/1999/xlink" version="1.1" id="Your_Icon" x="0px" y="0px" width="100px" height="100px" viewBox="0 0 100 100" enable-background="new 0 0 100 100" xml:space="preserve">
<g>
	<g>
		<path fill="#3D9970" d="M48.979,0.184c0.399-0.004,0.782-0.139,1.182-0.146c0.634-0.021,1.269,0.011,1.902-0.034    c1.267-0.018,2.532,0.029,3.798,0.055c0.564-0.001,1.11,0.16,1.67,0.21c0.91,0.096,1.828,0.182,2.701,0.471    c2.107,0.205,4.086,1.009,6.068,1.704c0.358,0.137,0.685,0.349,1.051,0.471C67.936,3.103,68.447,3.45,69,3.709    c0.674,0.412,1.373,0.78,2.041,1.203c3.53,2.352,6.459,5.585,8.5,9.301c0.266,0.477,0.578,0.93,0.784,1.438    c0.745,1.716,1.533,3.429,1.959,5.259c0.234,0.704,0.434,1.422,0.536,2.158c0.205,0.922,0.42,1.846,0.505,2.789    c0.094,0.846,0.019,1.708,0.218,2.54c0.011,1.618,0.044,3.24-0.065,4.856c-0.16,0.999-0.278,2.004-0.474,2.996    c-0.088,0.866-0.37,1.695-0.512,2.552c-0.483,1.507-0.925,3.031-1.527,4.498c-0.44,1.023-0.878,2.048-1.389,3.04    c-2.376,4.618-5.325,8.932-7.436,13.688c-1.059,2.291-1.573,4.797-1.797,7.3c-0.064,0.635-0.045,1.277-0.164,1.906    c-0.084,0.473-0.184,0.942-0.232,1.42c-0.062,0.582-0.336,1.108-0.473,1.673c-0.178,0.74-0.573,1.398-0.944,2.055    c-0.681,1.098-1.666,2.091-2.94,2.449c0.318,0.86,0.396,1.869-0.061,2.695c-0.199,0.391-0.537,0.676-0.863,0.957    c0.588,0.463,1.064,1.115,1.16,1.874c0.049,0.501,0.046,1.026-0.148,1.501c-0.204,0.522-0.582,0.962-1.029,1.296    c0.62,0.434,1.088,1.107,1.182,1.868c0.049,0.562,0.035,1.157-0.227,1.672c-0.209,0.448-0.559,0.811-0.951,1.105    c0.561,0.431,1.033,1.027,1.157,1.739c0.073,0.529,0.07,1.086-0.122,1.591c-0.235,0.649-0.732,1.205-1.37,1.479    c-0.683,0.34-1.464,0.171-2.193,0.259c-0.616,0.92-1.321,1.787-2.169,2.504c-1.158,1-2.549,1.723-4.018,2.146    c-1.736,0.496-3.57,0.584-5.359,0.395c-1.378-0.174-2.737-0.585-3.939-1.286c-1.424-0.832-2.592-2.091-3.31-3.575    c-0.051-0.078-0.078-0.231-0.203-0.204c-0.753-0.017-1.573,0.064-2.24-0.359c-1.355-0.746-1.688-2.723-0.824-3.957    c0.201-0.28,0.476-0.492,0.72-0.732c-1.314-0.856-1.574-2.855-0.615-4.068c0.161-0.237,0.425-0.373,0.602-0.591    c-0.472-0.386-0.903-0.867-1.067-1.467c-0.219-0.858-0.127-1.846,0.439-2.555c0.177-0.246,0.449-0.401,0.63-0.643    c-0.548-0.436-1.04-1.02-1.131-1.736c-0.121-0.614,0.002-1.232,0.172-1.822c-0.934-0.133-1.709-0.734-2.376-1.362    c-0.565-0.686-1.072-1.44-1.352-2.291c-0.231-0.697-0.471-1.398-0.555-2.132c-0.037-0.375-0.185-0.733-0.189-1.112    c-0.055-1.517-0.124-3.034-0.344-4.537c-0.071-1.101-0.43-2.149-0.761-3.192c-0.306-0.704-0.522-1.444-0.869-2.129    c-1.371-2.855-3.197-5.454-4.79-8.183c-1.288-2.17-2.531-4.375-3.496-6.709c-0.384-0.755-0.642-1.565-0.896-2.37    c-0.596-1.522-0.994-3.111-1.365-4.7c-0.069-0.311-0.165-0.617-0.197-0.935c-0.084-1.063-0.422-2.091-0.448-3.161    c-0.179-1.018-0.166-2.056-0.172-3.087c0.015-1.116-0.042-2.236,0.066-3.349c0.17-1.464,0.342-2.932,0.662-4.373    c0.692-3.183,1.874-6.264,3.522-9.075c2.319-3.966,5.612-7.371,9.544-9.758c2.404-1.469,5.021-2.571,7.727-3.348    c0.921-0.255,1.86-0.438,2.798-0.615C47.196,0.309,48.087,0.222,48.979,0.184z M48.82,2.006c-0.693-0.001-1.369,0.174-2.057,0.24    c-0.345,0.03-0.677,0.132-1.013,0.208c-2.052,0.493-4.102,1.066-6.006,1.992c-2.595,1.129-4.951,2.768-7.01,4.703    c-0.883,0.911-1.814,1.782-2.575,2.803c-2.361,2.908-4.061,6.325-5.104,9.916c-0.446,1.214-0.609,2.503-0.851,3.768    c-0.143,0.678-0.149,1.374-0.244,2.059c-0.186,1.441-0.143,2.898-0.097,4.346c0.018,0.393,0.001,0.79,0.072,1.178    c0.159,0.985,0.217,1.986,0.434,2.961c0.304,1.042,0.319,2.148,0.682,3.175c0.443,1.303,0.772,2.646,1.297,3.921    c0.561,1.413,1.136,2.824,1.863,4.161c0.701,1.376,1.506,2.695,2.295,4.022c0.856,1.317,1.634,2.683,2.483,4.004    c0.497,0.943,1.104,1.826,1.564,2.791c0.36,0.755,0.782,1.482,1.059,2.273c0.524,1.355,1.048,2.735,1.181,4.194    c0.243,1.463,0.26,2.949,0.349,4.426c0.163,0.754,0.172,1.534,0.379,2.279c0.229,0.938,0.514,1.901,1.141,2.657    c0.555,0.686,1.397,1.088,2.258,1.229c0.648,0.118,1.31,0.037,1.965,0.076c0.762,0.019,1.524,0.094,2.288,0.092    c0.635-0.375,1.202-0.858,1.714-1.388c1.966-2.033,2.911-4.916,2.821-7.716c0.009-5.196,0.008-10.392,0.006-15.586    c-0.014-0.883-0.089-1.785-0.417-2.613c-0.456-1.212-1.191-2.296-2.002-3.298c-1.799-2.234-3.998-4.108-6.29-5.816    c-0.2-0.143-0.415-0.271-0.569-0.466c0.159-0.369,0.41-0.688,0.628-1.021c0.295-0.411,0.56-0.845,0.862-1.251    c0.141,0.067,0.288,0.126,0.418,0.217c1.053,0.734,2.026,1.574,3.04,2.361c0.244-1.699,0.572-3.387,0.981-5.054    c0.037-0.14,0.099-0.271,0.157-0.403c0.869,0.228,1.739,0.457,2.612,0.669c-0.046,0.619-0.223,1.217-0.364,1.819    c-0.146,0.591-0.239,1.194-0.351,1.792c-0.195,1.1-0.375,2.211-0.345,3.332c0.012,0.185-0.023,0.4,0.133,0.537    c0.818,0.953,1.673,1.882,2.346,2.948c0.21,0.3,0.375,0.636,0.638,0.896c0.32-2.54,0.273-5.129-0.206-7.646    c0.096-0.055,0.201-0.095,0.309-0.122c0.788-0.217,1.561-0.502,2.371-0.627c0.269,1.134,0.416,2.293,0.49,3.454    c0.086,1.685,0.077,3.387-0.174,5.059c0.329-0.383,0.588-0.819,0.871-1.235c1.203-1.818,2.373-3.688,3.105-5.751    c0.586-1.574,0.809-3.251,0.922-4.918c0.9,0.023,1.802-0.002,2.703,0.013c0.146,1.662-0.273,3.296-0.622,4.907    c0.915-0.256,1.812-0.678,2.778-0.673c0.008,0.923,0.137,1.843,0.107,2.768c-1.809,0.332-3.451,1.317-4.723,2.628    c-0.701,0.693-1.232,1.528-1.762,2.353C56.488,47,55.486,48.3,54.894,49.813c-0.199,0.484-0.161,1.018-0.143,1.529    c0.021,5.222-0.005,10.443-0.02,15.665c0.034,3.279,1.823,6.326,4.235,8.455c1.285,0.016,2.572-0.012,3.859,0.008    c1.379,0.021,2.807-0.521,3.685-1.614c0.961-1.133,1.363-2.606,1.642-4.035c0.097-0.565,0.259-1.124,0.259-1.699    c0.063-1.248,0.273-2.481,0.406-3.722c0.21-0.676,0.189-1.398,0.423-2.068c0.238-0.748,0.467-1.501,0.765-2.229    c0.156-0.39,0.356-0.761,0.509-1.152c0.693-1.641,1.639-3.156,2.477-4.724c0.562-1.105,1.204-2.168,1.797-3.258    c0.7-1.292,1.518-2.517,2.196-3.821c0.546-1.063,1.158-2.095,1.625-3.199c0.704-1.54,1.403-3.094,1.814-4.744    c0.306-0.932,0.562-1.88,0.741-2.844c0.211-1.033,0.293-2.087,0.501-3.12c0.076-1.35,0.071-2.703,0.067-4.055    c0-0.139-0.016-0.278-0.045-0.413c-0.204-0.879-0.04-1.791-0.206-2.675c-0.099-0.515-0.142-1.038-0.182-1.559    c-0.313-1.208-0.587-2.426-0.933-3.625c-0.359-1.282-0.9-2.502-1.442-3.714c-0.608-1.342-1.325-2.634-2.164-3.846    c-0.936-1.382-1.986-2.691-3.17-3.869c-0.912-0.917-1.923-1.729-2.956-2.504c-1.094-0.823-2.303-1.475-3.506-2.119    C63.9,3.322,60.397,2.388,56.847,1.994c-0.537-0.079-1.075-0.169-1.62-0.151c-0.351,0.016-0.672-0.165-1.02-0.167    c-0.795-0.007-1.589,0.006-2.383,0.003C50.812,1.662,49.833,2.012,48.82,2.006z M56.105,78.176    c-0.734,0.368-1.26,1.063-1.551,1.82c2.277,0.089,4.564,0.009,6.846,0.041c0.534-0.018,1.11,0.071,1.6-0.199    c0.682-0.359,1.015-1.163,1.033-1.904c-2.249-0.012-4.498-0.002-6.747-0.006C56.88,77.919,56.469,77.988,56.105,78.176z     M55.751,82.959c-0.556,0.397-0.952,0.991-1.192,1.625c2.518,0.04,5.036,0.015,7.553,0.015c0.34,0.011,0.693-0.041,0.98-0.234    c0.611-0.4,0.932-1.144,0.949-1.857c-2.225-0.01-4.449-0.008-6.674-0.007C56.802,82.497,56.217,82.622,55.751,82.959z     M54.615,89.188c2.367,0.009,4.734,0.012,7.102,0.012c0.48-0.002,1.002-0.001,1.414-0.285c0.602-0.401,0.867-1.143,0.912-1.837    c-2.277-0.011-4.555-0.008-6.833-0.003C56.002,87.074,54.865,88.011,54.615,89.188z M55.692,92.153    c-0.506,0.408-0.952,0.944-1.093,1.596c2.32,0.036,4.64,0.01,6.959,0.019c0.531,0.008,1.104,0.028,1.568-0.274    c0.607-0.392,0.852-1.133,0.928-1.818c-0.455-0.079-0.927-0.012-1.389-0.033c-1.688,0.003-3.377-0.007-5.066-0.006    C56.938,91.632,56.228,91.729,55.692,92.153z"/>
	</g>
	<path fill="#3D9970" d="M51.623,7.997c0.438,0.014,0.785,0.327,1.076,0.623c0.573,0.621,0.99,1.441,0.973,2.301   c-0.002,0.565-0.459,1.131-1.036,1.167c-0.563-0.153-1.011-0.614-1.225-1.148C51.059,9.979,51.327,8.935,51.623,7.997z"/>
	<path fill="#3D9970" d="M59.715,9.625c0.363-0.388,0.801-0.777,1.352-0.836c0.357,0.943,0.57,1.968,0.437,2.978   c-0.102,0.806-0.616,1.575-1.37,1.902c-0.143,0.054-0.293,0.127-0.446,0.08c-0.624-0.151-1.086-0.768-1.085-1.406   C58.596,11.333,59.053,10.369,59.715,9.625z"/>
	<path fill="#3D9970" d="M47.711,9.315c0.774,0.164,1.365,0.75,1.818,1.366c0.593,0.815,1.004,1.824,0.889,2.848   c-0.06,0.656-0.573,1.245-1.219,1.383c-0.231,0.071-0.441-0.083-0.638-0.179c-0.634-0.34-1.105-0.951-1.289-1.646   c-0.266-0.949-0.116-1.953,0.113-2.893C47.464,9.892,47.564,9.593,47.711,9.315z"/>
	<path fill="#3D9970" d="M55.98,9.764c0.123-0.11,0.258,0.057,0.339,0.144c0.765,0.871,0.983,2.095,0.888,3.221   c-0.066,0.584-0.24,1.199-0.674,1.621c-0.361,0.363-0.916,0.484-1.408,0.379c-0.121-0.016-0.195-0.12-0.271-0.201   c-0.541-0.619-0.789-1.496-0.596-2.301C54.51,11.521,55.174,10.544,55.98,9.764z"/>
	<path fill="#3D9970" d="M43.7,11.335c0.87-0.048,1.683,0.401,2.304,0.975c0.423,0.394,0.782,0.893,0.873,1.474   c0.087,0.498-0.152,1.064-0.611,1.295c-0.58,0.06-1.179-0.161-1.597-0.565C43.872,13.677,43.648,12.454,43.7,11.335z"/>
	<path fill="#3D9970" d="M61.787,12.962c0.344-0.487,0.802-0.971,1.407-1.097c0.346,0.826,0.521,1.748,0.349,2.637   c-0.123,0.671-0.636,1.265-1.289,1.464c-0.502-0.001-0.941-0.424-1.025-0.907C61.084,14.317,61.389,13.573,61.787,12.962z"/>
	<path fill="#3D9970" d="M40.556,11.951c0.649-0.023,1.196,0.418,1.634,0.852c0.514,0.544,0.942,1.229,0.991,1.993   c0.049,0.527-0.251,1.079-0.745,1.287c-0.134,0.065-0.285,0.015-0.42-0.014c-0.645-0.172-1.17-0.691-1.384-1.319   C40.295,13.854,40.391,12.873,40.556,11.951z"/>
	<path fill="#3D9970" d="M51.136,12.899c0.795,0.066,1.461,0.586,1.986,1.15c0.573,0.641,1.042,1.443,1.054,2.324   c0.026,0.585-0.344,1.163-0.885,1.386c-0.172,0.092-0.365,0.019-0.538-0.029c-0.696-0.221-1.282-0.772-1.529-1.461   C50.817,15.194,50.895,14.004,51.136,12.899z"/>
	<path fill="#3D9970" d="M56.252,16.925c0.613-1.07,1.443-2.037,2.475-2.723c0.058,0.094,0.105,0.194,0.139,0.299   c0.34,1.008,0.498,2.074,0.496,3.137c-0.037,0.749-0.133,1.56-0.629,2.158c-0.424,0.5-1.155,0.604-1.761,0.438   c-0.544-0.101-1.103-0.456-1.232-1.025C55.574,18.413,55.865,17.611,56.252,16.925z"/>
	<path fill="#3D9970" d="M38.042,17.605c-0.158-0.877,0.011-1.789,0.339-2.607c0.446,0.054,0.801,0.355,1.094,0.674   c0.633,0.705,1.098,1.695,0.854,2.654c-0.137,0.398-0.504,0.714-0.922,0.775C38.708,18.933,38.184,18.295,38.042,17.605z"/>
	<path fill="#3D9970" d="M64.145,16.271c0.336-0.461,0.785-0.891,1.362-1.013c0.296,0.837,0.519,1.748,0.331,2.635   c-0.131,0.691-0.668,1.315-1.357,1.486c-0.479-0.066-0.898-0.464-0.959-0.948C63.391,17.661,63.697,16.887,64.145,16.271z"/>
	<path fill="#3D9970" d="M46.462,15.967c0.111-0.019,0.209,0.034,0.276,0.119c0.833,0.875,1.574,1.872,1.965,3.026   c0.164,0.513,0.254,1.096,0.031,1.606c-0.225,0.495-0.75,0.782-1.269,0.865c-0.383,0.058-0.824,0.089-1.147-0.167   c-0.501-0.381-0.662-1.041-0.703-1.639C45.549,18.463,45.852,17.132,46.462,15.967z"/>
	<path fill="#3D9970" d="M41.27,18.782c0.382-0.778,0.875-1.517,1.536-2.084c0.631,0.483,0.93,1.271,1.075,2.028   c0.156,0.891,0.146,1.866-0.324,2.667c-0.329,0.599-1.089,0.928-1.747,0.732c-0.194-0.118-0.331-0.312-0.457-0.496   C40.809,20.786,40.842,19.666,41.27,18.782z"/>
	<path fill="#3D9970" d="M61.023,17.02c0.149-0.043,0.237,0.104,0.33,0.192c0.67,0.745,1.258,1.601,1.52,2.58   c0.223,0.909-0.035,1.981-0.774,2.586c-0.587,0.2-1.296-0.028-1.654-0.536c-0.444-0.617-0.555-1.408-0.521-2.151   C59.982,18.723,60.261,17.673,61.023,17.02z"/>
	<path fill="#3D9970" d="M50.19,17.089c0.466,0.119,0.804,0.5,1.062,0.886c0.498,0.756,0.797,1.698,0.605,2.602   c-0.108,0.58-0.677,1.073-1.279,1c-0.354-0.139-0.629-0.435-0.831-0.75c-0.349-0.556-0.369-1.25-0.26-1.878   C49.603,18.29,49.886,17.679,50.19,17.089z"/>
	<path fill="#3D9970" d="M34.756,18.179c0.443,0.039,0.805,0.329,1.104,0.634c0.668,0.691,1.139,1.641,1.064,2.621   c-0.031,0.567-0.517,1.079-1.077,1.142c-0.546-0.154-1.011-0.561-1.258-1.069C34.131,20.439,34.386,19.231,34.756,18.179z"/>
	<path fill="#3D9970" d="M68.357,19.298c0.466-0.387,1.028-0.726,1.654-0.707c0.141,0.947,0.111,1.966-0.314,2.842   c-0.301,0.637-0.94,1.121-1.65,1.174c-0.15,0.028-0.283-0.059-0.398-0.142c-0.359-0.271-0.555-0.745-0.48-1.19   C67.264,20.483,67.765,19.804,68.357,19.298z"/>
	<path fill="#3D9970" d="M53.113,19.295c0.302,0.032,0.551,0.221,0.805,0.37c0.861,0.534,1.682,1.204,2.168,2.11   c0.459,0.823,0.465,1.898-0.031,2.705c-0.345,0.253-0.805,0.321-1.221,0.259c-0.561-0.09-1.004-0.506-1.322-0.954   c-0.461-0.684-0.695-1.499-0.785-2.312C52.646,20.73,52.747,19.953,53.113,19.295z"/>
	<path fill="#3D9970" d="M37.859,19.948c0.705-0.02,1.324,0.444,1.809,0.913c0.664,0.687,1.268,1.565,1.233,2.561   c0.023,0.625-0.423,1.246-1.036,1.392c-0.758-0.076-1.433-0.595-1.784-1.259C37.539,22.437,37.586,21.132,37.859,19.948z"/>
	<path fill="#3D9970" d="M63.593,21.892c0.566-0.818,1.372-1.557,2.388-1.721c0.318,1.088,0.352,2.292-0.045,3.366   c-0.288,0.818-1.057,1.457-1.92,1.562c-0.593-0.161-1.039-0.749-1.037-1.364C62.949,23.071,63.231,22.436,63.593,21.892z"/>
	<path fill="#3D9970" d="M44.336,21.702c0.196-0.233,0.408-0.461,0.675-0.616c0.7,1.377,1.219,2.909,1.108,4.473   c-0.048,0.625-0.337,1.299-0.931,1.582c-0.474,0.199-1.019,0.217-1.513,0.084c-0.449-0.119-0.862-0.449-0.979-0.912   c-0.184-0.764-0.032-1.567,0.255-2.286C43.292,23.188,43.766,22.405,44.336,21.702z"/>
	<path fill="#3D9970" d="M58.404,21.478c0.969,0.657,1.791,1.539,2.389,2.545c0.355,0.638,0.691,1.335,0.663,2.085   c-0.005,0.418-0.173,0.86-0.534,1.098c-0.553,0.363-1.279,0.498-1.912,0.277c-0.35-0.121-0.639-0.384-0.805-0.714   c-0.453-0.828-0.443-1.807-0.378-2.722C57.914,23.173,58.072,22.295,58.404,21.478z"/>
	<path fill="#3D9970" d="M31.653,21.673c0.808-0.054,1.57,0.333,2.178,0.835c0.498,0.422,0.935,0.976,1.033,1.638   c0.085,0.474-0.146,0.975-0.54,1.244c-0.482,0.117-0.994-0.047-1.396-0.321c-0.534-0.363-0.851-0.962-1.038-1.566   C31.716,22.911,31.651,22.29,31.653,21.673z"/>
	<path fill="#3D9970" d="M71.396,21.771c0.127-0.03,0.299-0.126,0.407,0c0.165,0.795,0.204,1.629,0.037,2.428   c-0.171,0.813-0.822,1.551-1.66,1.695c-0.316,0.02-0.589-0.208-0.767-0.449c-0.317-0.422-0.277-1.002-0.111-1.477   C69.656,22.998,70.408,22.127,71.396,21.771z"/>
	<path fill="#3D9970" d="M48.682,21.99l0.064-0.023c0.858,0.364,1.642,0.966,2.138,1.764c0.361,0.564,0.435,1.304,0.175,1.924   c-0.061,0.138-0.125,0.297-0.281,0.35c-0.46,0.196-1.034,0.134-1.413-0.204c-0.572-0.491-0.832-1.248-0.949-1.972   C48.328,23.212,48.35,22.536,48.682,21.99z"/>
	<path fill="#3D9970" d="M35.866,23.964c0.369-0.058,0.738,0.169,1.044,0.367c0.8,0.583,1.475,1.465,1.546,2.482   c0.064,0.584-0.347,1.224-0.948,1.308c-0.672-0.097-1.259-0.581-1.531-1.197c-0.359-0.783-0.32-1.673-0.225-2.509   C35.778,24.263,35.779,24.098,35.866,23.964z"/>
	<path fill="#3D9970" d="M67.762,24.236c0.1-0.041,0.202-0.004,0.301,0.021c0.146,0.882,0.227,1.811-0.048,2.676   c-0.222,0.732-0.86,1.348-1.626,1.467c-0.535-0.052-0.922-0.586-0.953-1.101c-0.052-0.761,0.342-1.471,0.82-2.034   C66.656,24.804,67.162,24.398,67.762,24.236z"/>
	<path fill="#3D9970" d="M45.837,27.864c0.605-0.902,1.514-1.574,2.497-2.015c0.417,0.593,0.453,1.353,0.388,2.051   c-0.115,0.919-0.428,1.874-1.14,2.505c-0.435,0.407-1.121,0.514-1.658,0.256c-0.116-0.06-0.244-0.128-0.29-0.258   C45.252,29.599,45.33,28.596,45.837,27.864z"/>
	<path fill="#3D9970" d="M51.799,26.584c0.021-0.229,0.016-0.467,0.094-0.687c0.785,0.309,1.479,0.808,2.131,1.333   c0.696,0.572,1.359,1.301,1.51,2.22c0.1,0.953-0.83,1.736-1.728,1.776c-0.591,0-1.05-0.469-1.317-0.953   C51.881,29.152,51.724,27.842,51.799,26.584z"/>
	<path fill="#3D9970" d="M39.884,26.271c1.097,0.505,2.114,1.25,2.792,2.262c0.558,0.806,0.637,1.911,0.214,2.794   c-0.07,0.157-0.214,0.268-0.373,0.326c-0.56,0.195-1.227,0.153-1.693-0.241c-0.782-0.637-1.175-1.64-1.323-2.614   C39.4,27.95,39.403,27.013,39.884,26.271z"/>
	<path fill="#3D9970" d="M72.964,26.598c0.728-0.239,1.523-0.33,2.274-0.146c-0.074,0.866-0.655,1.611-1.348,2.098   c-0.409,0.271-0.903,0.496-1.404,0.409c-0.361-0.059-0.663-0.319-0.831-0.637C71.669,27.545,72.245,26.851,72.964,26.598z"/>
	<path fill="#3D9970" d="M62.242,27.661c0.537-0.44,1.111-0.854,1.769-1.096c0.487,0.746,0.474,1.691,0.369,2.544   c-0.151,0.898-0.493,1.809-1.163,2.45c-0.519,0.509-1.379,0.641-2.016,0.282c-0.238-0.186-0.334-0.496-0.402-0.778   c-0.107-0.587-0.094-1.217,0.15-1.77C61.229,28.648,61.713,28.115,62.242,27.661z"/>
	<path fill="#3D9970" d="M33.166,26.665c1.054,0.475,2.027,1.149,2.812,2.004c0.451,0.515,0.873,1.155,0.808,1.872   c-0.051,0.582-0.532,1.004-1.015,1.265c-0.454,0.272-1.08,0.249-1.487-0.1c-0.857-0.784-1.119-1.998-1.221-3.108   C33.003,27.953,32.982,27.291,33.166,26.665z"/>
	<path fill="#3D9970" d="M70.125,27.229c0.206-0.117,0.414-0.257,0.661-0.258c0.163,1.404,0.078,2.885-0.546,4.176   c-0.255,0.501-0.658,1.012-1.248,1.108c-0.641,0.063-1.248-0.311-1.633-0.799c-0.285-0.352-0.318-0.844-0.197-1.266   c0.15-0.562,0.536-1.018,0.928-1.431C68.68,28.143,69.387,27.652,70.125,27.229z"/>
	<path fill="#3D9970" d="M56.379,29.342c-0.044-0.599-0.062-1.219,0.09-1.803c0.902,0.09,1.668,0.665,2.23,1.343   c0.41,0.516,0.761,1.136,0.738,1.815c0,0.515-0.328,1.021-0.807,1.214c-0.531,0.025-1.043-0.228-1.416-0.592   C56.684,30.805,56.464,30.058,56.379,29.342z"/>
	<path fill="#3D9970" d="M49.929,28.797c0.183-0.132,0.37-0.288,0.603-0.312c0.439,0.742,0.487,1.654,0.31,2.481   c-0.14,0.57-0.369,1.165-0.852,1.531c-0.379,0.301-0.927,0.328-1.358,0.129c-0.51-0.623-0.531-1.564-0.145-2.255   C48.82,29.73,49.357,29.225,49.929,28.797z"/>
	<path fill="#3D9970" d="M28.604,29.425c0.689-0.256,1.461-0.134,2.128,0.131c0.59,0.257,1.174,0.612,1.519,1.172   c0.273,0.424,0.286,1.013,0,1.433c-0.162,0.292-0.546,0.27-0.834,0.294c-0.713,0.028-1.361-0.379-1.793-0.919   C29.115,30.931,28.802,30.185,28.604,29.425z"/>
	<path fill="#3D9970" d="M72.316,30.295c0.842-0.577,1.929-0.935,2.937-0.621c-0.059,0.495-0.267,0.958-0.498,1.395   c-0.308,0.537-0.673,1.083-1.232,1.385c-0.512,0.286-1.156,0.384-1.712,0.175c-0.236-0.171-0.324-0.478-0.381-0.749   C71.349,31.224,71.812,30.653,72.316,30.295z"/>
	<path fill="#3D9970" d="M37.929,31.188c0.766-0.045,1.42,0.437,1.957,0.928c0.546,0.556,1.041,1.254,1.075,2.06   c0.037,0.504-0.214,1.043-0.672,1.281c-0.224,0.122-0.484,0.052-0.709-0.023c-0.589-0.19-1.083-0.642-1.333-1.206   C37.799,33.282,37.848,32.203,37.929,31.188z"/>
	<path fill="#3D9970" d="M44.659,31.34c0.103-0.105,0.184,0.039,0.236,0.115c0.519,0.758,0.571,1.736,0.421,2.616   c-0.11,0.517-0.32,1.055-0.75,1.388c-0.31,0.246-0.737,0.268-1.111,0.193c-0.244-0.041-0.333-0.311-0.444-0.497   c-0.388-0.75-0.192-1.664,0.25-2.344C43.637,32.247,44.11,31.738,44.659,31.34z"/>
	<path fill="#3D9970" d="M64.408,32.045c0.426-0.339,0.952-0.604,1.51-0.564c0.156,0.975,0.152,2.013-0.238,2.936   c-0.281,0.696-0.926,1.243-1.67,1.368c-0.289,0.083-0.557-0.112-0.744-0.31c-0.316-0.339-0.414-0.837-0.313-1.283   C63.125,33.314,63.727,32.59,64.408,32.045z"/>
	<path fill="#3D9970" d="M54.869,32.4c0.592-0.058,1.258-0.074,1.762,0.295c0.407,0.293,0.509,0.843,0.468,1.315   c-0.052,0.586-0.403,1.206-1.003,1.365c-1.272,0.27-2.525-0.294-3.61-0.907c-0.304-0.194-0.651-0.344-0.882-0.63   c0.004-0.026,0.014-0.078,0.019-0.104C52.584,33.052,53.701,32.578,54.869,32.4z"/>
	<path fill="#3D9970" d="M33.765,33.214c0.712-0.2,1.482-0.312,2.208-0.11c0.428,0.114,0.817,0.46,0.883,0.914   c0.048,0.441,0.036,0.913-0.163,1.319c-0.203,0.407-0.628,0.673-1.076,0.719c-0.519,0.05-1.051,0-1.546-0.168   c-0.982-0.315-1.941-0.772-2.726-1.451C32.044,33.849,32.902,33.493,33.765,33.214z"/>
	<path fill="#3D9970" d="M67.941,33.37c0.643-0.176,1.32-0.073,1.959,0.069c0.965,0.232,1.877,0.68,2.666,1.281   c-0.924,0.732-2.006,1.275-3.154,1.553c-0.622,0.126-1.35,0.179-1.879-0.24c-0.532-0.446-0.615-1.226-0.463-1.864   C67.166,33.754,67.548,33.476,67.941,33.37z"/>
	<path fill="#3D9970" d="M71.21,36.627c0.504-0.446,1.24-0.366,1.853-0.254c0.844,0.209,1.72,0.498,2.354,1.118   c-1.005,0.74-2.203,1.39-3.492,1.283C70.961,38.672,70.586,37.298,71.21,36.627z"/>
	<path fill="#3D9970" d="M31.763,36.6c0.431-0.119,0.943-0.18,1.333,0.088c0.391,0.293,0.467,0.832,0.437,1.289   c-0.009,0.338-0.224,0.641-0.504,0.815c-0.312,0.201-0.688,0.258-1.052,0.28c-0.754,0.05-1.504-0.097-2.225-0.303   c-0.215-0.068-0.45-0.131-0.603-0.309C29.854,37.648,30.719,36.921,31.763,36.6z"/>
	<path fill="#3D9970" d="M36.854,37.004c0.466-0.175,0.999-0.268,1.48-0.092c0.458,0.183,0.697,0.68,0.758,1.144   c0.052,0.438,0.026,0.942-0.305,1.273c-0.488,0.513-1.239,0.602-1.91,0.615c-1.018,0.005-2.036-0.195-2.993-0.535   c0.048-0.128,0.106-0.253,0.199-0.354C34.836,38.177,35.756,37.404,36.854,37.004z"/>
	<path fill="#3D9970" d="M65.127,37.506c0.201-0.263,0.536-0.392,0.859-0.405c0.535-0.029,1.053,0.153,1.527,0.383   c0.884,0.431,1.631,1.095,2.274,1.831c0.089,0.104,0.153,0.224,0.228,0.34c-0.223,0.137-0.488,0.179-0.736,0.255   c-1.104,0.302-2.291,0.459-3.411,0.151c-0.505-0.138-0.989-0.521-1.082-1.059C64.714,38.487,64.803,37.925,65.127,37.506z"/>
	<path fill="#3D9970" d="M38.869,40.6c0.39-0.319,0.89-0.57,1.407-0.499c0.439,0.059,0.757,0.416,0.976,0.774   c0.27,0.449,0.362,1.067,0.048,1.519c-0.41,0.599-1.095,0.935-1.769,1.146c-0.885,0.273-1.813,0.422-2.741,0.4   C37.145,42.66,37.849,41.46,38.869,40.6z"/>
	<path fill="#3D9970" d="M34.638,40.883c0.425-0.199,1.045-0.343,1.395,0.067c0.353,0.426,0.464,1.172,0.009,1.569   c-0.374,0.332-0.899,0.404-1.38,0.452c-0.652,0.024-1.325-0.024-1.946-0.236C33.147,41.941,33.84,41.299,34.638,40.883z"/>
	<path fill="#3D9970" d="M65.133,41.146c0.525-0.19,1.104-0.028,1.584,0.214c1.139,0.606,2.068,1.576,2.686,2.703   c-1.006,0.274-2.066,0.335-3.102,0.212c-0.627-0.084-1.301-0.272-1.733-0.764c-0.336-0.373-0.333-0.926-0.21-1.385   C64.479,41.722,64.716,41.298,65.133,41.146z"/>
	<path fill="#3D9970" d="M70.242,41.909c0.327-0.343,0.846-0.333,1.283-0.295c0.696,0.094,1.376,0.34,1.968,0.722   c0.122,0.085,0.261,0.159,0.343,0.29c-0.872,0.58-1.857,1.149-2.942,1.068C70.086,43.621,69.758,42.491,70.242,41.909z"/>
	<path fill="#3D9970" d="M42.406,43.185c0.267-0.4,0.695-0.738,1.194-0.749c0.405-0.011,0.726,0.285,0.986,0.561   c0.367,0.387,0.393,1.013,0.116,1.457c-0.239,0.384-0.588,0.685-0.959,0.935c-0.702,0.476-1.494,0.818-2.32,1.008   C41.435,45.264,41.771,44.127,42.406,43.185z"/>
	<path fill="#3D9970" d="M60.51,43.109c0.445-0.115,0.916,0.01,1.318,0.208c0.929,0.476,1.661,1.258,2.248,2.107   c0.182,0.274,0.387,0.541,0.472,0.865c-0.972,0.203-1.981,0.209-2.96,0.054c-0.668-0.111-1.387-0.33-1.816-0.888   c-0.328-0.415-0.282-1-0.102-1.466C59.826,43.609,60.09,43.218,60.51,43.109z"/>
</g>
</svg>